<svg width="314" height="440" viewBox="0 0 314 440" fill="none" xmlns="http://www.w3.org/2000/svg">
<mask id="mask0_115_2" style="mask-type:luminance" maskUnits="userSpaceOnUse" x="264" y="78" width="31" height="285">
<path d="M264.594 78.3161H294.606V362.696H264.594V78.3161Z" fill="white"/>
</mask>
<g mask="url(#mask0_115_2)">
<mask id="mask1_115_2" style="mask-type:luminance" maskUnits="userSpaceOnUse" x="263" y="77" width="32" height="287">
<path d="M294.873 77.4488H263.85V363.453H294.873V77.4488Z" fill="white"/>
</mask>
<g mask="url(#mask1_115_2)">
<mask id="mask2_115_2" style="mask-type:luminance" maskUnits="userSpaceOnUse" x="264" y="78" width="31" height="285">
<path d="M264.594 78.3161H294.606V362.696H264.594V78.3161Z" fill="white"/>
</mask>
<g mask="url(#mask2_115_2)">
<path d="M264.594 78.3161H294.606V362.668H264.594V78.3161Z" fill="white"/>
</g>
</g>
</g>
<mask id="mask3_115_2" style="mask-type:luminance" maskUnits="userSpaceOnUse" x="185" y="55" width="31" height="216">
<path d="M185.146 55.496H215.158V270.158H185.146V55.496Z" fill="white"/>
</mask>
<g mask="url(#mask3_115_2)">
<mask id="mask4_115_2" style="mask-type:luminance" maskUnits="userSpaceOnUse" x="184" y="54" width="32" height="217">
<path d="M215.706 54.8938H184.683V270.525H215.706V54.8938Z" fill="white"/>
</mask>
<g mask="url(#mask4_115_2)">
<mask id="mask5_115_2" style="mask-type:luminance" maskUnits="userSpaceOnUse" x="185" y="55" width="31" height="216">
<path d="M185.146 55.4972H215.158V270.159H185.146V55.4972Z" fill="white"/>
</mask>
<g mask="url(#mask5_115_2)">
<path d="M185.146 55.4972H215.158V270.142H185.146V55.4972Z" fill="white"/>
</g>
</g>
</g>
<mask id="mask6_115_2" style="mask-type:luminance" maskUnits="userSpaceOnUse" x="19" y="16" width="31" height="187">
<path d="M19.1367 16.9998H49.1487V202.459H19.1367V16.9998Z" fill="white"/>
</mask>
<g mask="url(#mask6_115_2)">
<mask id="mask7_115_2" style="mask-type:luminance" maskUnits="userSpaceOnUse" x="18" y="16" width="32" height="187">
<path d="M49.8904 16.9998H18.8672V202.858H49.8904V16.9998Z" fill="white"/>
</mask>
<g mask="url(#mask7_115_2)">
<mask id="mask8_115_2" style="mask-type:luminance" maskUnits="userSpaceOnUse" x="19" y="16" width="31" height="187">
<path d="M19.126 16.9998H49.138V202.459H19.126V16.9998Z" fill="white"/>
</mask>
<g mask="url(#mask8_115_2)">
<path d="M19.126 16.9998H49.138V202.48H19.126V16.9998Z" fill="white"/>
</g>
</g>
</g>
<mask id="mask9_115_2" style="mask-type:luminance" maskUnits="userSpaceOnUse" x="106" y="41" width="31" height="139">
<path d="M106.001 41.4728H136.009V179.872H106.001V41.4728Z" fill="white"/>
</mask>
<g mask="url(#mask9_115_2)">
<mask id="mask10_115_2" style="mask-type:luminance" maskUnits="userSpaceOnUse" x="105" y="41" width="32" height="140">
<path d="M136.539 41.3588H105.516V180.301H136.539V41.3588Z" fill="white"/>
</mask>
<g mask="url(#mask10_115_2)">
<mask id="mask11_115_2" style="mask-type:luminance" maskUnits="userSpaceOnUse" x="106" y="41" width="31" height="139">
<path d="M106.001 41.4714H136.009V179.871H106.001V41.4714Z" fill="white"/>
</mask>
<g mask="url(#mask11_115_2)">
<path d="M106.001 41.4714H136.009V179.892H106.001V41.4714Z" fill="white"/>
</g>
</g>
</g>
<mask id="mask12_115_2" style="mask-type:luminance" maskUnits="userSpaceOnUse" x="39" y="16" width="98" height="51">
<path d="M39.1895 16.9998H136.538V66.622H39.1895V16.9998Z" fill="white"/>
</mask>
<g mask="url(#mask12_115_2)">
<mask id="mask13_115_2" style="mask-type:luminance" maskUnits="userSpaceOnUse" x="39" y="16" width="98" height="50">
<path d="M39.1895 40.9621L48.8466 16.9969L136.012 41.9807L126.355 65.9459L39.1895 40.9621Z" fill="white"/>
</mask>
<g mask="url(#mask13_115_2)">
<mask id="mask14_115_2" style="mask-type:luminance" maskUnits="userSpaceOnUse" x="39" y="17" width="98" height="50">
<path d="M136.538 17.0009H39.1895V66.6231H136.538V17.0009Z" fill="white"/>
</mask>
<g mask="url(#mask14_115_2)">
<mask id="mask15_115_2" style="mask-type:luminance" maskUnits="userSpaceOnUse" x="39" y="17" width="98" height="50">
<path d="M39.1895 17.0009H136.196V66.1544H39.1895V17.0009Z" fill="white"/>
</mask>
<g mask="url(#mask15_115_2)">
<mask id="mask16_115_2" style="mask-type:luminance" maskUnits="userSpaceOnUse" x="39" y="16" width="98" height="50">
<path d="M39.1895 40.9632L48.8466 16.9979L136.012 41.9817L126.355 65.947L39.1895 40.9632Z" fill="white"/>
</mask>
<g mask="url(#mask16_115_2)">
<path d="M39.1895 40.9632L48.8466 16.9979L135.978 41.9712L126.321 65.9364L39.1895 40.9632Z" fill="white"/>
</g>
</g>
</g>
</g>
</g>
<mask id="mask17_115_2" style="mask-type:luminance" maskUnits="userSpaceOnUse" x="105" y="164" width="105" height="107">
<path d="M105.527 164.061H209.295V270.523H105.527V164.061Z" fill="white"/>
</mask>
<g mask="url(#mask17_115_2)">
<mask id="mask18_115_2" style="mask-type:luminance" maskUnits="userSpaceOnUse" x="106" y="164" width="103" height="107">
<path d="M106.012 179.823L130.19 164.83L208.952 255.162L184.773 270.158L106.012 179.823Z" fill="white"/>
</mask>
<g mask="url(#mask18_115_2)">
<mask id="mask19_115_2" style="mask-type:luminance" maskUnits="userSpaceOnUse" x="105" y="164" width="105" height="107">
<path d="M209.295 164.061H105.527V270.523H209.295V164.061Z" fill="white"/>
</mask>
<g mask="url(#mask19_115_2)">
<mask id="mask20_115_2" style="mask-type:luminance" maskUnits="userSpaceOnUse" x="105" y="164" width="105" height="107">
<path d="M105.915 164.675H209.127V270.345H105.915V164.675Z" fill="white"/>
</mask>
<g mask="url(#mask20_115_2)">
<mask id="mask21_115_2" style="mask-type:luminance" maskUnits="userSpaceOnUse" x="106" y="164" width="103" height="107">
<path d="M106.012 179.823L130.19 164.83L208.952 255.162L184.773 270.158L106.012 179.823Z" fill="white"/>
</mask>
<g mask="url(#mask21_115_2)">
<path d="M106.012 179.823L130.19 164.83L208.948 255.155L184.769 270.151L106.012 179.823Z" fill="white"/>
</g>
</g>
</g>
</g>
</g>
<mask id="mask22_115_2" style="mask-type:luminance" maskUnits="userSpaceOnUse" x="19" y="186" width="240" height="238">
<path d="M19.126 186.618H258.499V423H19.126V186.618Z" fill="white"/>
</mask>
<g mask="url(#mask22_115_2)">
<mask id="mask23_115_2" style="mask-type:luminance" maskUnits="userSpaceOnUse" x="19" y="186" width="240" height="237">
<path d="M19.1367 202.948L42.2495 186.8L258.389 406.851L235.276 422.996L19.1367 202.948Z" fill="white"/>
</mask>
<g mask="url(#mask23_115_2)">
<mask id="mask24_115_2" style="mask-type:luminance" maskUnits="userSpaceOnUse" x="18" y="186" width="241" height="238">
<path d="M258.495 186.618H18.8672V423H258.495V186.618Z" fill="white"/>
</mask>
<g mask="url(#mask24_115_2)">
<mask id="mask25_115_2" style="mask-type:luminance" maskUnits="userSpaceOnUse" x="19" y="186" width="240" height="237">
<path d="M19.126 186.762H258.415V422.999H19.126V186.762Z" fill="white"/>
</mask>
<g mask="url(#mask25_115_2)">
<mask id="mask26_115_2" style="mask-type:luminance" maskUnits="userSpaceOnUse" x="19" y="186" width="240" height="237">
<path d="M19.1367 202.949L42.2495 186.8L258.389 406.851L235.276 422.996L19.1367 202.949Z" fill="white"/>
</mask>
<g mask="url(#mask26_115_2)">
<path d="M19.1367 202.949L42.2495 186.8L258.38 406.844L235.267 422.989L19.1367 202.949Z" fill="white"/>
</g>
</g>
</g>
</g>
</g>
<mask id="mask27_115_2" style="mask-type:luminance" maskUnits="userSpaceOnUse" x="205" y="54" width="90" height="49">
<path d="M205.006 54.8938H294.866V102.712H205.006V54.8938Z" fill="white"/>
</mask>
<g mask="url(#mask27_115_2)">
<mask id="mask28_115_2" style="mask-type:luminance" maskUnits="userSpaceOnUse" x="205" y="55" width="90" height="48">
<path d="M205.275 79.4588L214.928 55.4935L294.601 78.3275L284.944 102.293L205.275 79.4588Z" fill="white"/>
</mask>
<g mask="url(#mask28_115_2)">
<mask id="mask29_115_2" style="mask-type:luminance" maskUnits="userSpaceOnUse" x="205" y="54" width="90" height="49">
<path d="M294.866 54.8938H205.006V102.712H294.866V54.8938Z" fill="white"/>
</mask>
<g mask="url(#mask29_115_2)">
<mask id="mask30_115_2" style="mask-type:luminance" maskUnits="userSpaceOnUse" x="205" y="55" width="90" height="48">
<path d="M205.265 55.3262H294.615V102.312H205.265V55.3262Z" fill="white"/>
</mask>
<g mask="url(#mask30_115_2)">
<mask id="mask31_115_2" style="mask-type:luminance" maskUnits="userSpaceOnUse" x="205" y="55" width="90" height="48">
<path d="M205.286 79.46L214.939 55.4947L294.612 78.3287L284.955 102.294L205.286 79.46Z" fill="white"/>
</mask>
<g mask="url(#mask31_115_2)">
<path d="M205.286 79.46L214.939 55.4947L294.637 78.3357L284.98 102.301L205.286 79.46Z" fill="white"/>
</g>
</g>
</g>
</g>
</g>
<mask id="mask32_115_2" style="mask-type:luminance" maskUnits="userSpaceOnUse" x="96" y="221" width="199" height="161">
<path d="M96.9668 221.804H294.874V381.497H96.9668V221.804Z" fill="white"/>
</mask>
<g mask="url(#mask32_115_2)">
<mask id="mask33_115_2" style="mask-type:luminance" maskUnits="userSpaceOnUse" x="87" y="213" width="208" height="169">
<path d="M87.5869 231.623L108.289 213.297L294.683 363.059L273.981 381.385L87.5869 231.623Z" fill="white"/>
</mask>
<g mask="url(#mask33_115_2)">
<mask id="mask34_115_2" style="mask-type:luminance" maskUnits="userSpaceOnUse" x="97" y="222" width="198" height="160">
<path d="M97.9365 222.461L294.611 363.003L273.909 381.329L97.9365 222.461Z" fill="white"/>
</mask>
<g mask="url(#mask34_115_2)">
<mask id="mask35_115_2" style="mask-type:luminance" maskUnits="userSpaceOnUse" x="96" y="221" width="199" height="161">
<path d="M294.874 221.804H96.9668V381.497H294.874V221.804Z" fill="white"/>
</mask>
<g mask="url(#mask35_115_2)">
<mask id="mask36_115_2" style="mask-type:luminance" maskUnits="userSpaceOnUse" x="97" y="222" width="198" height="160">
<path d="M97.6885 222.274H294.613V381.428H97.6885V222.274Z" fill="white"/>
</mask>
<g mask="url(#mask36_115_2)">
<mask id="mask37_115_2" style="mask-type:luminance" maskUnits="userSpaceOnUse" x="87" y="213" width="208" height="169">
<path d="M87.5762 231.623L108.278 213.297L294.672 363.059L273.971 381.385L87.5762 231.623Z" fill="white"/>
</mask>
<g mask="url(#mask37_115_2)">
<mask id="mask38_115_2" style="mask-type:luminance" maskUnits="userSpaceOnUse" x="97" y="222" width="198" height="160">
<path d="M97.9258 222.46L294.6 363.003L273.898 381.329L97.9258 222.46Z" fill="white"/>
</mask>
<g mask="url(#mask38_115_2)">
<path d="M87.5762 231.623L108.278 213.297L294.585 362.992L273.887 381.318L87.5762 231.623Z" fill="white"/>
</g>
</g>
</g>
</g>
</g>
</g>
</g>
</svg>
